<svg width="20" height="20" viewBox="0 0 13 13" fill="none" xmlns="http://www.w3.org/2000/svg">
<path d="M6.4935 0C2.9055 0 0 2.912 0 6.5C0 10.088 2.9055 13 6.4935 13C10.088 13 13 10.088 13 6.5C13 2.912 10.088 0 6.4935 0ZM10.998 3.9H9.0805C8.8725 3.0875 8.5735 2.3075 8.1835 1.586C9.3795 1.9955 10.374 2.8275 10.998 3.9ZM6.5 1.326C7.0395 2.106 7.462 2.9705 7.7415 3.9H5.2585C5.538 2.9705 5.9605 2.106 6.5 1.326ZM1.469 7.8C1.365 7.384 1.3 6.9485 1.3 6.5C1.3 6.0515 1.365 5.616 1.469 5.2H3.666C3.614 5.629 3.575 6.058 3.575 6.5C3.575 6.942 3.614 7.371 3.666 7.8H1.469ZM2.002 9.1H3.9195C4.1275 9.9125 4.4265 10.6925 4.8165 11.414C3.6205 11.0045 2.626 10.179 2.002 9.1ZM3.9195 3.9H2.002C2.626 2.821 3.6205 1.9955 4.8165 1.586C4.4265 2.3075 4.1275 3.0875 3.9195 3.9ZM6.5 11.674C5.9605 10.894 5.538 10.0295 5.2585 9.1H7.7415C7.462 10.0295 7.0395 10.894 6.5 11.674ZM8.021 7.8H4.979C4.9205 7.371 4.875 6.942 4.875 6.5C4.875 6.058 4.9205 5.6225 4.979 5.2H8.021C8.0795 5.6225 8.125 6.058 8.125 6.5C8.125 6.942 8.0795 7.371 8.021 7.8ZM8.1835 11.414C8.5735 10.6925 8.8725 9.9125 9.0805 9.1H10.998C10.374 10.1725 9.3795 11.0045 8.1835 11.414ZM9.334 7.8C9.386 7.371 9.425 6.942 9.425 6.5C9.425 6.058 9.386 5.629 9.334 5.2H11.531C11.635 5.616 11.7 6.0515 11.7 6.5C11.7 6.9485 11.635 7.384 11.531 7.8H9.334Z" fill="#4072FF"/>
</svg>
